<svg width="36" height="37" viewBox="0 0 36 37" fill="none" xmlns="http://www.w3.org/2000/svg">
<path d="M17.3333 18.6116C17.3333 18.7884 17.4036 18.958 17.5286 19.083C17.6536 19.2081 17.8232 19.2783 18 19.2783C18.1768 19.2783 18.3464 19.2081 18.4714 19.083C18.5964 18.958 18.6667 18.7884 18.6667 18.6116C18.6667 18.4348 18.5964 18.2653 18.4714 18.1402C18.3464 18.0152 18.1768 17.945 18 17.945C17.8232 17.945 17.6536 18.0152 17.5286 18.1402C17.4036 18.2653 17.3333 18.4348 17.3333 18.6116Z" fill="#131313"/>
<path d="M17.3333 23.2783C17.3333 23.4551 17.4036 23.6247 17.5286 23.7497C17.6536 23.8747 17.8232 23.945 18 23.945C18.1768 23.945 18.3464 23.8747 18.4714 23.7497C18.5964 23.6247 18.6667 23.4551 18.6667 23.2783C18.6667 23.1015 18.5964 22.9319 18.4714 22.8069C18.3464 22.6819 18.1768 22.6116 18 22.6116C17.8232 22.6116 17.6536 22.6819 17.5286 22.8069C17.4036 22.9319 17.3333 23.1015 17.3333 23.2783Z" fill="#131313"/>
<path d="M17.3333 13.945C17.3333 14.1218 17.4036 14.2913 17.5286 14.4164C17.6536 14.5414 17.8232 14.6116 18 14.6116C18.1768 14.6116 18.3464 14.5414 18.4714 14.4164C18.5964 14.2913 18.6667 14.1218 18.6667 13.945C18.6667 13.7682 18.5964 13.5986 18.4714 13.4736C18.3464 13.3485 18.1768 13.2783 18 13.2783C17.8232 13.2783 17.6536 13.3485 17.5286 13.4736C17.4036 13.5986 17.3333 13.7682 17.3333 13.945Z" fill="#131313"/>
<path d="M17.3333 18.6116C17.3333 18.7884 17.4036 18.958 17.5286 19.083C17.6536 19.2081 17.8232 19.2783 18 19.2783C18.1768 19.2783 18.3464 19.2081 18.4714 19.083C18.5964 18.958 18.6667 18.7884 18.6667 18.6116C18.6667 18.4348 18.5964 18.2653 18.4714 18.1402C18.3464 18.0152 18.1768 17.945 18 17.945C17.8232 17.945 17.6536 18.0152 17.5286 18.1402C17.4036 18.2653 17.3333 18.4348 17.3333 18.6116Z" stroke="#734A00" stroke-width="1.25" stroke-linecap="round" stroke-linejoin="round"/>
<path d="M17.3333 23.2783C17.3333 23.4551 17.4036 23.6247 17.5286 23.7497C17.6536 23.8747 17.8232 23.945 18 23.945C18.1768 23.945 18.3464 23.8747 18.4714 23.7497C18.5964 23.6247 18.6667 23.4551 18.6667 23.2783C18.6667 23.1015 18.5964 22.9319 18.4714 22.8069C18.3464 22.6819 18.1768 22.6116 18 22.6116C17.8232 22.6116 17.6536 22.6819 17.5286 22.8069C17.4036 22.9319 17.3333 23.1015 17.3333 23.2783Z" stroke="#734A00" stroke-width="1.25" stroke-linecap="round" stroke-linejoin="round"/>
<path d="M17.3333 13.945C17.3333 14.1218 17.4036 14.2913 17.5286 14.4164C17.6536 14.5414 17.8232 14.6116 18 14.6116C18.1768 14.6116 18.3464 14.5414 18.4714 14.4164C18.5964 14.2913 18.6667 14.1218 18.6667 13.945C18.6667 13.7682 18.5964 13.5986 18.4714 13.4736C18.3464 13.3485 18.1768 13.2783 18 13.2783C17.8232 13.2783 17.6536 13.3485 17.5286 13.4736C17.4036 13.5986 17.3333 13.7682 17.3333 13.945Z" stroke="#734A00" stroke-width="1.25" stroke-linecap="round" stroke-linejoin="round"/>
</svg>
