<svg width="36" height="37" viewBox="0 0 36 37" fill="none" xmlns="http://www.w3.org/2000/svg">
<path d="M19 14.945L21.6667 17.6116M12.6667 23.945H15.3333L22.3333 16.945C22.5084 16.7699 22.6473 16.562 22.7421 16.3332C22.8369 16.1045 22.8856 15.8593 22.8856 15.6116C22.8856 15.364 22.8369 15.1188 22.7421 14.89C22.6473 14.6613 22.5084 14.4534 22.3333 14.2783C22.1582 14.1032 21.9504 13.9643 21.7216 13.8695C21.4928 13.7748 21.2476 13.726 21 13.726C20.7524 13.726 20.5072 13.7748 20.2784 13.8695C20.0496 13.9643 19.8418 14.1032 19.6667 14.2783L12.6667 21.2783V23.945Z" stroke="#734A00" stroke-width="1.25" stroke-linecap="round" stroke-linejoin="round"/>
</svg>
